<svg width="35" height="35" viewBox="0 0 35 35" fill="none" xmlns="http://www.w3.org/2000/svg">
<path fill-rule="evenodd" clip-rule="evenodd" d="M29.9401 6.60673C30.3672 6.1796 30.3672 5.48707 29.9401 5.05994C29.5129 4.6328 28.8204 4.6328 28.3933 5.05994L5.05994 28.3933C4.6328 28.8204 4.6328 29.5129 5.05994 29.9401C5.48707 30.3672 6.1796 30.3672 6.60673 29.9401L10.7585 25.7883C12.751 26.7263 15.0459 27.3438 17.5 27.3438C21.4142 27.3438 24.9234 25.773 27.4467 23.8364C28.7108 22.8663 29.7547 21.7839 30.4921 20.7212C31.2093 19.6879 31.7188 18.5539 31.7188 17.5C31.7188 16.4461 31.2093 15.3121 30.4921 14.2788C29.7547 13.2161 28.7108 12.1337 27.4467 11.1636C27.0644 10.8702 26.6595 10.5852 26.234 10.3128L29.9401 6.60673ZM24.6452 11.9016L22.0627 14.4841C22.6353 15.3486 22.9688 16.3854 22.9688 17.5C22.9688 20.5203 20.5203 22.9688 17.5 22.9688C16.3854 22.9688 15.3486 22.6353 14.4841 22.0627L12.4181 24.1287C13.972 24.7618 15.6948 25.1563 17.5 25.1563C20.8345 25.1563 23.8878 23.8103 26.1149 22.1011C27.226 21.2483 28.1042 20.3254 28.695 19.4741C29.3062 18.5933 29.5313 17.9044 29.5313 17.5C29.5313 17.0956 29.3062 16.4067 28.695 15.5259C28.1042 14.6746 27.226 13.7517 26.1149 12.8989C25.6581 12.5484 25.1667 12.2131 24.6452 11.9016ZM16.0853 20.4615C16.5137 20.6665 16.9934 20.7813 17.5 20.7813C19.3122 20.7813 20.7813 19.3122 20.7813 17.5C20.7813 16.9934 20.6665 16.5137 20.4615 16.0853L16.0853 20.4615Z" fill="black"/>
<path d="M17.5 7.65625C19.0717 7.65625 20.5781 7.9095 21.9816 8.338C22.1594 8.39229 22.2124 8.61579 22.081 8.74726L20.7016 10.1266C20.6397 10.1885 20.5501 10.2133 20.465 10.1933C19.5133 9.96964 18.5198 9.84375 17.5 9.84375C14.1655 9.84375 11.1122 11.1897 8.88515 12.8989C7.77405 13.7517 6.89583 14.6746 6.305 15.5259C5.69378 16.4067 5.46875 17.0956 5.46875 17.5C5.46875 17.9044 5.69378 18.5933 6.305 19.4741C6.83966 20.2445 7.60965 21.0735 8.57459 21.8561C8.69129 21.9507 8.70228 22.1259 8.59603 22.2322L7.39775 23.4305C7.30744 23.5208 7.1634 23.5286 7.06503 23.4472C6.01932 22.5812 5.14812 21.6438 4.50786 20.7212C3.79075 19.6879 3.28125 18.5539 3.28125 17.5C3.28125 16.4461 3.79075 15.3121 4.50786 14.2788C5.24534 13.2161 6.28924 12.1337 7.5533 11.1636C10.0766 9.22699 13.5858 7.65625 17.5 7.65625Z" fill="black"/>
<path d="M17.5 12.0313C17.7443 12.0313 17.9849 12.0473 18.2207 12.0783C18.4167 12.1041 18.4876 12.3407 18.3478 12.4805L16.4316 14.3966C15.4789 14.7246 14.7245 15.4789 14.3966 16.4316L12.4805 18.3478C12.3407 18.4876 12.1041 18.4167 12.0783 18.2207C12.0473 17.9849 12.0313 17.7443 12.0313 17.5C12.0313 14.4797 14.4797 12.0313 17.5 12.0313Z" fill="black"/>
</svg>
