<svg width="35" height="35" viewBox="0 0 35 35" fill="none" xmlns="http://www.w3.org/2000/svg">
<path fill-rule="evenodd" clip-rule="evenodd" d="M12.0313 17.5C12.0313 14.4797 14.4797 12.0313 17.5 12.0313C20.5203 12.0313 22.9688 14.4797 22.9688 17.5C22.9688 20.5203 20.5203 22.9688 17.5 22.9688C14.4797 22.9688 12.0313 20.5203 12.0313 17.5ZM17.5 14.2188C15.6878 14.2188 14.2188 15.6878 14.2188 17.5C14.2188 19.3122 15.6878 20.7813 17.5 20.7813C19.3122 20.7813 20.7813 19.3122 20.7813 17.5C20.7813 15.6878 19.3122 14.2188 17.5 14.2188Z" fill="black"/>
<path fill-rule="evenodd" clip-rule="evenodd" d="M6.305 15.5259C5.69378 16.4067 5.46875 17.0956 5.46875 17.5C5.46875 17.9044 5.69378 18.5933 6.305 19.4741C6.89583 20.3254 7.77405 21.2483 8.88515 22.1011C11.1122 23.8103 14.1655 25.1563 17.5 25.1563C20.8345 25.1563 23.8878 23.8103 26.1149 22.1011C27.226 21.2483 28.1042 20.3254 28.695 19.4741C29.3062 18.5933 29.5313 17.9044 29.5313 17.5C29.5313 17.0956 29.3062 16.4067 28.695 15.5259C28.1042 14.6746 27.226 13.7517 26.1149 12.8989C23.8878 11.1897 20.8345 9.84375 17.5 9.84375C14.1655 9.84375 11.1122 11.1897 8.88515 12.8989C7.77405 13.7517 6.89583 14.6746 6.305 15.5259ZM7.5533 11.1636C10.0766 9.22699 13.5858 7.65625 17.5 7.65625C21.4142 7.65625 24.9234 9.22699 27.4467 11.1636C28.7108 12.1337 29.7547 13.2161 30.4921 14.2788C31.2093 15.3121 31.7188 16.4461 31.7188 17.5C31.7188 18.5539 31.2093 19.6879 30.4921 20.7212C29.7547 21.7839 28.7108 22.8663 27.4467 23.8364C24.9234 25.773 21.4142 27.3438 17.5 27.3438C13.5858 27.3438 10.0766 25.773 7.5533 23.8364C6.28924 22.8663 5.24535 21.7839 4.50786 20.7212C3.79075 19.6879 3.28125 18.5539 3.28125 17.5C3.28125 16.4461 3.79075 15.3121 4.50786 14.2788C5.24535 13.2161 6.28924 12.1337 7.5533 11.1636Z" fill="black"/>
</svg>
