<svg width="501" height="502" viewBox="0 0 501 502" fill="none" xmlns="http://www.w3.org/2000/svg">
<path d="M284.512 253.599C276.077 285.488 277.963 337.986 277.963 337.986C277.963 337.986 288.698 305.69 297.609 285.895C308.875 260.87 316.199 247.148 331.36 224.428C343.364 206.437 351.094 197.033 365.11 180.671C377.471 166.241 385.085 158.787 398.357 145.25C415.401 127.865 443.19 102.014 443.19 102.014C443.19 102.014 432.603 120.057 424.551 130.664C413.04 145.828 403.631 151.624 391.304 166.086C377.227 182.604 370.175 192.631 357.554 210.363C344.552 228.631 336.616 238.543 325.818 258.287C314.55 278.891 310.004 291.469 301.639 313.503C294.046 333.503 289.39 344.708 284.512 365.594C280.996 380.646 279.136 389.225 277.963 404.662C276.977 417.641 277.963 438 277.963 438L292.068 418.726C292.068 418.726 293.075 372.439 312.217 353.092C331.36 333.745 339.923 328.609 365.11 313.503C390.297 298.397 407.256 278.776 416.995 261.412L352.013 277.039L403.394 248.389C403.394 248.389 423.551 235.475 434.122 224.428C452.11 205.63 467.369 166.086 467.369 166.086L434.122 180.671C434.122 180.671 450.256 165.548 459.309 154.626L459.46 154.445C471.513 139.903 478.581 131.377 486.511 113.995C498.727 87.2216 498.347 69.0531 500.112 39.5054C500.985 24.8865 500.112 2 500.112 2C500.112 2 470.09 36.3665 449.234 56.6953C430.152 75.2957 417.978 84.0229 398.357 102.014C368.048 129.806 345.955 140.943 322.292 174.941C302.917 202.779 293.262 220.516 284.512 253.599Z" fill="white" stroke="white"/>
<path d="M278.016 502C278.349 502 278.683 502 279.016 502C279.401 496.74 279.145 491.386 278.274 486.092C275.727 470.556 268.039 455.917 257.99 443.805C237.726 419.771 211.763 401.557 183.81 387.696C163.578 377.876 142.588 370.423 121.436 364.08C95.7738 356.429 69.4318 351.99 42.7388 349.673C37.4816 349.214 32.2151 348.836 26.9247 348.515C26.8429 348.838 26.7611 349.162 26.6793 349.485C31.4881 351.72 36.3246 353.858 41.1842 355.918C65.8902 366.372 90.9147 374.805 116.005 382.287C136.693 388.487 157.323 394.852 176.945 402.909C203.894 414.209 230.12 429.378 250.511 450.443C260.606 461.058 269.924 472.81 274.856 486.949C276.526 491.764 277.635 496.823 278.016 502Z" fill="white"/>
<path d="M26.302 335C26.6353 335 26.9687 335 27.302 335C27.5837 326.643 27.9105 318.285 28.2538 309.928C29.5352 278.731 31.0464 247.535 31.302 216.339C31.5897 181.226 31.9023 146.113 32.1673 111L25.6425 116.238C72.9332 127.682 121.715 127.806 166.734 140.952C179.459 144.6 191.888 148.973 204.222 154.031C224.878 162.612 245.243 172.23 262.454 186.382C268.61 191.648 274.75 197.555 278.029 204.982C278.354 204.908 278.679 204.833 279.004 204.759C276.838 196.291 271.407 189.328 265.74 182.967C249.816 165.845 229.471 153.855 208.646 143.969C196.172 138.114 183.308 133.22 170.044 129.418C122.692 115.72 74.1626 116.288 27.9615 105.762L21.3871 104.358L21.4367 111C21.7017 146.113 22.0143 181.226 22.302 216.339C22.5576 247.535 24.0688 278.731 25.3502 309.928C25.6935 318.285 26.0203 326.643 26.302 335Z" fill="white"/>
<path d="M256.242 496.166C256.557 496.055 256.871 495.945 257.186 495.834C254.581 487.51 250.788 479.567 246.235 471.978C239.542 460.892 230.79 450.696 220.167 442.924C216.453 440.203 212.589 437.681 208.59 435.366C176.24 416.385 139.814 404.941 103.264 398.611C97.5279 397.591 91.7824 396.671 86.0337 395.826C57.9799 391.548 30.9174 378.135 8.17092 361.034L9.97856 364.872C9.33419 299.19 8.09261 233.508 6.25382 167.827C6.0128 159.218 5.76153 150.609 5.5 142C5.16667 142 4.83333 142 4.5 142C4.23847 150.609 3.9872 159.218 3.74618 167.827C1.90739 233.508 0.665805 299.19 0.021436 364.872L0.044916 367.265L1.82908 368.71C26.0106 387.603 53.6548 401.773 84.4214 406.68C90.0793 407.529 95.7203 408.442 101.338 409.441C137.161 415.662 172.103 426.255 203.551 444.186C207.263 446.277 210.851 448.558 214.304 451.025C224.145 458.054 233.597 465.919 241.839 475.201C247.42 481.531 252.581 488.481 256.242 496.166Z" fill="white"/>
</svg>
