<svg width="501" height="502" viewBox="0 0 501 502" fill="none" xmlns="http://www.w3.org/2000/svg">
<path d="M284.49 252.876C276.055 284.765 277.942 337.263 277.942 337.263C277.942 337.263 288.676 304.967 297.588 285.172C308.853 260.147 316.178 246.425 331.338 223.705C343.342 205.714 351.073 196.31 365.089 179.948C377.45 165.518 385.063 158.064 398.335 144.527C415.38 127.142 443.168 101.291 443.168 101.291C443.168 101.291 432.582 119.334 424.53 129.941C413.019 145.105 403.609 150.901 391.283 165.363C377.205 181.88 370.153 191.908 357.532 209.64C344.53 227.908 336.595 237.82 325.797 257.564C314.528 278.168 309.983 290.746 301.617 312.78C294.024 332.78 289.368 343.985 284.49 364.871C280.975 379.923 279.114 388.502 277.942 403.939C276.956 416.918 277.942 437.277 277.942 437.277L292.046 418.003C292.046 418.003 293.054 371.716 312.196 352.369C331.338 333.022 339.901 327.886 365.089 312.78C390.276 297.674 407.235 278.053 416.974 260.689L351.991 276.316L403.373 247.666C403.373 247.666 423.529 234.752 434.101 223.705C452.089 204.907 467.348 165.363 467.348 165.363L434.101 179.948C434.101 179.948 450.235 164.825 459.288 153.903L459.438 153.722C471.492 139.18 478.559 130.654 486.49 113.272C498.705 86.4986 498.326 68.3301 500.09 38.7824C500.964 24.1635 500.09 1.27698 500.09 1.27698C500.09 1.27698 470.069 35.6435 449.213 55.9723C430.13 74.5727 417.956 83.2999 398.335 101.291C368.026 129.083 345.934 140.22 322.271 174.218C302.896 202.056 293.241 219.793 284.49 252.876Z" fill="#C79435" stroke="#C79435"/>
<path d="M277.995 501.277C278.328 501.277 278.661 501.277 278.995 501.277C279.379 496.017 279.124 490.663 278.253 485.369C275.705 469.833 268.017 455.193 257.968 443.082C237.705 419.048 211.742 400.834 183.788 386.973C163.557 377.153 142.567 369.7 121.415 363.357C95.7523 355.706 69.4103 351.267 42.7173 348.95C37.4601 348.491 32.1936 348.113 26.9032 347.792C26.8214 348.115 26.7396 348.439 26.6578 348.762C31.4666 350.997 36.3031 353.135 41.1627 355.195C65.8687 365.649 90.8932 374.082 115.983 381.564C136.672 387.764 157.301 394.129 176.924 402.186C203.873 413.486 230.099 428.655 250.49 449.72C260.585 460.335 269.902 472.087 274.835 486.226C276.504 491.041 277.614 496.1 277.995 501.277Z" fill="#C79435"/>
<path d="M26.2805 334.277C26.6139 334.277 26.9472 334.277 27.2805 334.277C27.5622 325.92 27.889 317.562 28.2323 309.205C29.5137 278.008 31.0249 246.812 31.2805 215.616C31.5682 180.503 31.8808 145.39 32.1458 110.277L25.621 115.515C72.9117 126.959 121.694 127.083 166.713 140.229C179.437 143.877 191.867 148.25 204.2 153.308C224.857 161.889 245.222 171.507 262.432 185.659C268.588 190.925 274.729 196.832 278.007 204.259C278.332 204.185 278.657 204.11 278.982 204.036C276.816 195.568 271.386 188.605 265.719 182.244C249.795 165.122 229.45 153.132 208.624 143.246C196.151 137.391 183.287 132.497 170.023 128.695C122.671 114.997 74.1411 115.565 27.94 105.039L21.3656 103.635L21.4153 110.277C21.6803 145.39 21.9929 180.503 22.2805 215.616C22.5361 246.812 24.0473 278.008 25.3287 309.205C25.672 317.562 25.9988 325.92 26.2805 334.277Z" fill="#C79435"/>
<path d="M256.221 495.443C256.535 495.332 256.85 495.222 257.164 495.111C254.559 486.787 250.767 478.844 246.213 471.255C239.52 460.169 230.769 449.973 220.146 442.201C216.432 439.48 212.567 436.958 208.569 434.643C176.219 415.662 139.793 404.218 103.242 397.888C97.5064 396.868 91.7609 395.948 86.0122 395.103C57.9585 390.825 30.8959 377.412 8.14944 360.311L9.95708 364.149C9.31271 298.467 8.07113 232.785 6.23233 167.104C5.99132 158.495 5.74005 149.886 5.47852 141.277C5.14518 141.277 4.81185 141.277 4.47852 141.277C4.21698 149.886 3.96571 158.495 3.7247 167.104C1.8859 232.785 0.644321 298.467 -4.83876e-05 364.149L0.0234316 366.542L1.80759 367.987C25.9891 386.88 53.6333 401.05 84.4 405.957C90.0578 406.806 95.6988 407.719 101.316 408.718C137.139 414.939 172.081 425.532 203.529 443.463C207.241 445.554 210.83 447.835 214.283 450.302C224.124 457.331 233.575 465.196 241.818 474.478C247.399 480.808 252.56 487.758 256.221 495.443Z" fill="#C79435"/>
</svg>
